<?xml version="1.0" encoding="UTF-8"?> <svg xmlns="http://www.w3.org/2000/svg" width="409.99" height="89.79" viewBox="0 0 409.99 89.79"><defs><style>.cls-1{fill:#231f20;}.cls-2{fill:#005c97;}.cls-3{fill:#00aae7;}.cls-4{fill:#008bc0;}.cls-5{fill:#fff;}</style></defs><title>Asset 3</title><g id="Layer_2" data-name="Layer 2"><g id="Layer_1-2" data-name="Layer 1"><path class="cls-1" d="M101.67,13.73h10.44V36a15.62,15.62,0,0,1,12.16-5.77c11,0,15.53,8.88,15.53,17.68V73.2H129.36V49.25c0-5.18-1.39-9.68-7.57-9.68-6.57,0-9.68,5.34-9.68,12.33V73.2H101.67Z"></path><path class="cls-1" d="M146.82,52.07c0-11.87,8.54-21.8,21.55-21.8s21.55,9.93,21.55,21.8-8.54,22-21.55,22S146.82,64,146.82,52.07Zm32.4,0c0-6.9-3.07-12.92-10.86-12.92s-10.86,6-10.86,12.92,3.11,13.13,10.86,13.13S179.23,59,179.23,52.07Z"></path><path class="cls-1" d="M193.28,62.25l8.16-3.62c1.14,3,3.37,6.9,9,6.9,4.75,0,6.82-2.78,6.82-5,0-7.07-21.13-2.31-21.13-17.17,0-8.88,7.49-13.09,15.61-13.09a17.52,17.52,0,0,1,15.95,9.13l-8,4.33c-1.43-2.61-3.79-5.34-8.33-5.34-3.37,0-5.43,1.64-5.43,3.62,0,6.35,21.38,2.57,21.38,18,0,9.72-8.46,14-16.41,14C202.07,74,195.34,68.74,193.28,62.25Z"></path><path class="cls-1" d="M238.22,61.58V39.74h-6.78V31.15h6.94V20.72l10.1-7.32V31.15H259v8.58H248.49v20c0,4,2,5.22,4.67,5.22A14.54,14.54,0,0,0,259,63.47v9.3A24,24,0,0,1,251.35,74C243.14,74,238.22,69.24,238.22,61.58Z"></path><path class="cls-1" d="M276.91,61.59h0a5.94,5.94,0,0,1,6.16,5.7v.88a5.94,5.94,0,0,1-6.16,5.7h0a5.94,5.94,0,0,1-6.16-5.7v-.88A5.94,5.94,0,0,1,276.91,61.59Z"></path><path class="cls-1" d="M295.45,31.15h9.93v5.26c2.74-4.67,7.07-6.14,11.36-6.14,4.76,0,9.93,1.81,12.42,7.41a15.1,15.1,0,0,1,13.47-7.41c10.69,0,15.07,8.8,15.07,17.68V73.2H347.42V49.25c0-5.18-1.56-9.43-6.86-9.43-5.55,0-8.79,4.67-8.79,10.27V73.2H321.5V49.08c0-5.09-1.56-9.26-6.82-9.26-5.6,0-8.88,4.67-8.88,10.27V73.2H295.53Z"></path><path class="cls-1" d="M368.79,13.73h10.27V48.62l15.87-17.46h13.34L392.53,47.44,410,73.2H397.87L385.54,53.71l-6.48,7.15V73.2H368.79Z"></path><path class="cls-2" d="M1.15,21.27,41.76,0V21.87L1.66,33A1.31,1.31,0,0,1,0,31.76V23.17A2.14,2.14,0,0,1,1.15,21.27Z"></path><path class="cls-2" d="M.79,39.06l41-5.17V56.31L1,50.51a1.19,1.19,0,0,1-1-1.17V40A.9.9,0,0,1,.79,39.06Z"></path><path class="cls-2" d="M41.76,67.38V89.79L1,67.94A2,2,0,0,1,0,66.2V58a1.32,1.32,0,0,1,1.66-1.27Z"></path><polygon class="cls-3" points="6.49 32.5 41.77 23.05 41.77 32.86 6.49 37.36 6.49 32.5"></polygon><polygon class="cls-3" points="41.77 57.34 41.77 66.34 6.49 56.89 6.49 52.21 41.77 57.34"></polygon><path class="cls-4" d="M82.64,21.41,41.76,0V21.87L82,33.07a1.18,1.18,0,0,0,1.5-1.14v-9A1.67,1.67,0,0,0,82.64,21.41Z"></path><path class="cls-4" d="M82.84,39.07,41.76,33.89V56.31l41-5.83a.87.87,0,0,0,.75-.86V39.85A.78.78,0,0,0,82.84,39.07Z"></path><path class="cls-4" d="M41.76,67.38V89.79l40.92-22a1.6,1.6,0,0,0,.85-1.41V57.57a1,1,0,0,0-1.22-.94Z"></path><polygon class="cls-3" points="77.04 32.5 41.77 23.05 41.77 32.86 77.04 37.36 77.04 32.5"></polygon><polygon class="cls-3" points="41.77 57.34 41.77 66.34 77.04 56.89 77.04 52.21 41.77 57.34"></polygon><path class="cls-5" d="M75.92,27,65.54,23.33c-.43-.15-.79-1-.79-1.83v-.77c0-.85.36-1.4.79-1.22l10.38,4.32c.29.12.53.79.53,1.48v.63C76.45,26.63,76.21,27.11,75.92,27Z"></path><path class="cls-5" d="M79.35,26.73c0,.81-.26,1.37-.58,1.26s-.6-.88-.6-1.71.27-1.39.6-1.25S79.35,25.92,79.35,26.73Z"></path><path class="cls-5" d="M75.91,46l-10.74.21c-.46,0-.84-.68-.84-1.53v-.77c0-.85.38-1.53.84-1.51l10.74.42c.31,0,.57.59.57,1.28v.63C76.48,45.44,76.23,46,75.91,46Z"></path><path class="cls-5" d="M79.36,44.47c0,.82-.26,1.48-.59,1.49s-.6-.67-.6-1.5.27-1.5.6-1.49S79.36,43.65,79.36,44.47Z"></path><path class="cls-5" d="M76,65,65.14,69.3c-.44.17-.8-.38-.8-1.24v-.39c0-.86.36-1.68.8-1.83L76,62.17c.29-.1.53.38.53,1.07v.31C76.48,64.24,76.25,64.9,76,65Z"></path><path class="cls-5" d="M79.36,62.19c0,.82-.26,1.58-.59,1.71s-.6-.44-.6-1.27.27-1.6.6-1.72S79.36,61.37,79.36,62.19Z"></path></g></g></svg> 